<svg width="39" height="30" viewBox="0 0 39 30" fill="none" xmlns="http://www.w3.org/2000/svg">
<g filter="url(#filter0_i)">
<rect width="38.4682" height="30" fill="#27AE60"/>
</g>
<path d="M14.5035 14.5283C14.5035 15.1891 14.262 15.7337 13.7789 16.1621C13.2958 16.5905 12.5986 16.8548 11.6871 16.9551V18.4385H10.7779V16.9961C9.64771 16.9779 8.7203 16.8047 7.99569 16.4766V15.0342C8.38762 15.2256 8.84563 15.3874 9.36971 15.5195C9.8938 15.6471 10.3632 15.7132 10.7779 15.7178V13.1611L10.2037 12.9492C9.4563 12.6621 8.90943 12.3203 8.56307 11.9238C8.22128 11.5228 8.05038 11.0283 8.05038 10.4404C8.05038 9.81152 8.29419 9.29427 8.78182 8.88867C9.27401 8.48307 9.93938 8.23698 10.7779 8.15039V7.00195H11.6871V8.12988C12.6122 8.16178 13.4895 8.34863 14.3189 8.69043L13.8199 9.94141C13.1044 9.65885 12.3935 9.49023 11.6871 9.43555V11.9238L12.2066 12.1221C13.0725 12.4548 13.6718 12.8057 14.0045 13.1748C14.3372 13.5439 14.5035 13.9951 14.5035 14.5283ZM12.8902 14.6309C12.8902 14.3665 12.7968 14.1501 12.6099 13.9814C12.4277 13.8083 12.12 13.6419 11.6871 13.4824V15.6631C12.4892 15.54 12.8902 15.196 12.8902 14.6309ZM9.65682 10.4268C9.65682 10.6865 9.73658 10.903 9.89608 11.0762C10.0601 11.2493 10.3541 11.4202 10.7779 11.5889V9.46289C10.4133 9.51758 10.1353 9.62923 9.94393 9.79785C9.75253 9.96647 9.65682 10.1761 9.65682 10.4268ZM19.2408 11.3838C20.248 11.3838 21.0455 11.6504 21.6334 12.1836C22.2213 12.7168 22.5152 13.4437 22.5152 14.3643C22.5152 15.4307 22.1803 16.2646 21.5103 16.8662C20.845 17.4632 19.8971 17.7617 18.6666 17.7617C17.5501 17.7617 16.6728 17.5817 16.0348 17.2217V15.7656C16.4039 15.9753 16.8277 16.137 17.3062 16.251C17.7848 16.3649 18.2291 16.4219 18.6392 16.4219C19.3639 16.4219 19.9153 16.2601 20.2935 15.9365C20.6718 15.613 20.8609 15.139 20.8609 14.5146C20.8609 13.3206 20.0999 12.7236 18.5777 12.7236C18.3635 12.7236 18.0992 12.7464 17.7848 12.792C17.4703 12.833 17.1946 12.8809 16.9576 12.9355L16.2398 12.5117L16.6226 7.63086H21.818V9.05957H18.0377L17.8121 11.5342C17.9716 11.5068 18.1653 11.4749 18.3932 11.4385C18.6256 11.402 18.9081 11.3838 19.2408 11.3838ZM30.6226 12.6279C30.6226 14.3643 30.3424 15.654 29.7818 16.4971C29.2258 17.3402 28.3736 17.7617 27.2252 17.7617C26.1132 17.7617 25.2701 17.3265 24.6959 16.4561C24.1217 15.5856 23.8346 14.3096 23.8346 12.6279C23.8346 10.8643 24.1126 9.56543 24.6685 8.73145C25.2291 7.8929 26.0813 7.47363 27.2252 7.47363C28.3417 7.47363 29.1871 7.91113 29.7613 8.78613C30.3355 9.66113 30.6226 10.9417 30.6226 12.6279ZM25.4615 12.6279C25.4615 13.9906 25.6005 14.9635 25.8785 15.5469C26.1611 16.1302 26.6099 16.4219 27.2252 16.4219C27.8404 16.4219 28.2893 16.1257 28.5719 15.5332C28.859 14.9408 29.0025 13.9723 29.0025 12.6279C29.0025 11.2881 28.859 10.3197 28.5719 9.72266C28.2893 9.12109 27.8404 8.82031 27.2252 8.82031C26.6099 8.82031 26.1611 9.11426 25.8785 9.70215C25.6005 10.29 25.4615 11.2653 25.4615 12.6279Z" fill="white"/>
<defs>
<filter id="filter0_i" x="0" y="0" width="38.4682" height="30" filterUnits="userSpaceOnUse" color-interpolation-filters="sRGB">
<feFlood flood-opacity="0" result="BackgroundImageFix"/>
<feBlend mode="normal" in="SourceGraphic" in2="BackgroundImageFix" result="shape"/>
<feColorMatrix in="SourceAlpha" type="matrix" values="0 0 0 0 0 0 0 0 0 0 0 0 0 0 0 0 0 0 127 0" result="hardAlpha"/>
<feOffset dy="-3"/>
<feComposite in2="hardAlpha" operator="arithmetic" k2="-1" k3="1"/>
<feColorMatrix type="matrix" values="0 0 0 0 0 0 0 0 0 0 0 0 0 0 0 0 0 0 0.15 0"/>
<feBlend mode="normal" in2="shape" result="effect1_innerShadow"/>
</filter>
</defs>
</svg>
