<svg width="22" height="24" viewBox="0 0 22 24" fill="none" xmlns="http://www.w3.org/2000/svg">
<path d="M10.1248 5.11364V8.18182L14.5916 4.09091L10.1248 0V3.06818C5.18894 3.06818 1.19115 6.72955 1.19115 11.25C1.19115 12.8557 1.70483 14.3489 2.57586 15.6068L4.20624 14.1136C3.70373 13.2648 3.42455 12.283 3.42455 11.25C3.42455 7.86477 6.42848 5.11364 10.1248 5.11364ZM17.6737 6.89318L16.0433 8.38636C16.5346 9.24545 16.825 10.217 16.825 11.25C16.825 14.6352 13.821 17.3864 10.1248 17.3864V14.3182L5.65795 18.4091L10.1248 22.5V19.4318C15.0606 19.4318 19.0584 15.7705 19.0584 11.25C19.0584 9.64432 18.5447 8.15114 17.6737 6.89318Z" fill="white"/>
</svg>
