<svg width="134" height="50" viewBox="0 0 134 50" fill="none" xmlns="http://www.w3.org/2000/svg">
<g filter="url(#filter0_d)">
<rect width="134" height="46" fill="#22264A"/>
</g>
<line opacity="0.2" x1="91.5" y1="14.2264" x2="91.5" y2="31.5014" stroke="white"/>
<g opacity="0.2">
<path d="M110.452 29.2224C110.513 29.322 110.595 29.4035 110.691 29.4598C110.786 29.5161 110.892 29.5455 111 29.5455C111.108 29.5455 111.214 29.5161 111.31 29.4598C111.405 29.4035 111.487 29.322 111.548 29.2224L117.548 19.4988C117.618 19.3866 117.658 19.2553 117.666 19.119C117.674 18.9827 117.648 18.8466 117.591 18.7257C117.535 18.6047 117.45 18.5034 117.346 18.4328C117.241 18.3622 117.122 18.325 117 18.3252H105C104.879 18.3258 104.76 18.3635 104.656 18.4342C104.552 18.505 104.468 18.6062 104.411 18.7269C104.355 18.8476 104.329 18.9832 104.336 19.1192C104.343 19.2552 104.383 19.3864 104.452 19.4988L110.452 29.2224Z" fill="white"/>
</g>
<path opacity="0.2" d="M17.3193 18.3473H20.2861C21.6624 18.3473 22.6559 18.5478 23.2666 18.9489C23.8818 19.3499 24.1895 19.9834 24.1895 20.8493C24.1895 21.4326 24.0391 21.918 23.7383 22.3053C23.4375 22.6927 23.0046 22.9365 22.4395 23.0368V23.1051C23.1413 23.2373 23.6562 23.4993 23.9844 23.8913C24.3171 24.2786 24.4834 24.805 24.4834 25.4704C24.4834 26.3682 24.1689 27.0723 23.54 27.5827C22.9157 28.0885 22.0452 28.3415 20.9287 28.3415H17.3193V18.3473ZM18.9531 22.4762H20.5254C21.209 22.4762 21.708 22.3691 22.0225 22.1549C22.3369 21.9362 22.4941 21.567 22.4941 21.0475C22.4941 20.5781 22.3232 20.2386 21.9814 20.029C21.6442 19.8193 21.1064 19.7145 20.3682 19.7145H18.9531V22.4762ZM18.9531 23.8024V26.9674H20.6895C21.373 26.9674 21.888 26.8376 22.2344 26.5778C22.5853 26.3135 22.7607 25.8988 22.7607 25.3336C22.7607 24.8141 22.583 24.429 22.2275 24.1784C21.8721 23.9277 21.332 23.8024 20.6074 23.8024H18.9531ZM32.7617 28.3415L31.7637 25.5661H27.9424L26.9648 28.3415H25.2422L28.9814 18.3063H30.7588L34.498 28.3415H32.7617ZM31.333 24.1579L30.3965 21.4372C30.3281 21.2549 30.2324 20.9678 30.1094 20.5758C29.9909 20.1839 29.9089 19.8968 29.8633 19.7145C29.7402 20.2751 29.5602 20.888 29.3232 21.5534L28.4209 24.1579H31.333ZM34.5527 31.1305C34.1061 31.1305 33.7324 31.0736 33.4316 30.9596V29.5856C33.8145 29.6813 34.1471 29.7292 34.4297 29.7292C35.3229 29.7292 35.7695 29.1641 35.7695 28.0338V18.3473H37.4102V27.9792C37.4102 29 37.1663 29.7793 36.6787 30.317C36.1956 30.8594 35.487 31.1305 34.5527 31.1305ZM46.2012 28.3415L45.2031 25.5661H41.3818L40.4043 28.3415H38.6816L42.4209 18.3063H44.1982L47.9375 28.3415H46.2012ZM44.7725 24.1579L43.8359 21.4372C43.7676 21.2549 43.6719 20.9678 43.5488 20.5758C43.4303 20.1839 43.3483 19.8968 43.3027 19.7145C43.1797 20.2751 42.9997 20.888 42.7627 21.5534L41.8604 24.1579H44.7725Z" fill="white"/>
<defs>
<filter id="filter0_d" x="0" y="0" width="134" height="50" filterUnits="userSpaceOnUse" color-interpolation-filters="sRGB">
<feFlood flood-opacity="0" result="BackgroundImageFix"/>
<feColorMatrix in="SourceAlpha" type="matrix" values="0 0 0 0 0 0 0 0 0 0 0 0 0 0 0 0 0 0 127 0"/>
<feOffset dy="4"/>
<feColorMatrix type="matrix" values="0 0 0 0 0.113725 0 0 0 0 0.12549 0 0 0 0 0.247059 0 0 0 1 0"/>
<feBlend mode="normal" in2="BackgroundImageFix" result="effect1_dropShadow"/>
<feBlend mode="normal" in="SourceGraphic" in2="effect1_dropShadow" result="shape"/>
</filter>
</defs>
</svg>
