<svg width="20" height="20" viewBox="0 0 20 20" fill="none" xmlns="http://www.w3.org/2000/svg">
<path d="M10.5469 6.77344V9.77348L12.5377 11.7644C12.7513 11.9779 12.7513 12.3242 12.5377 12.5377C12.3242 12.7513 11.9779 12.7513 11.7644 12.5377L9.6133 10.3867C9.51074 10.2842 9.45312 10.145 9.45312 10V6.77344C9.45312 6.4714 9.69796 6.22656 10 6.22656C10.302 6.22656 10.5469 6.4714 10.5469 6.77344ZM12.1511 3H7.84895C6.70352 3 5.57348 3.40255 4.66931 4.18885V3.54688C4.66931 3.24484 4.42447 3 4.12243 3C3.82039 3 3.57556 3.24484 3.57556 3.54688V5.69793C3.57556 5.99996 3.8225 6.2448 4.12243 6.2448H6.27348C6.57552 6.2448 6.82036 5.99996 6.82036 5.69793C6.82036 5.39589 6.57552 5.15105 6.27348 5.15105H5.23899C5.93117 4.48373 6.86553 4.09375 7.84895 4.09375H12.151C14.2217 4.09375 15.9062 5.77832 15.9062 7.84895V12.151C15.9062 14.2217 14.2217 15.9062 12.1511 15.9062H7.84895C5.77832 15.9062 4.09375 14.2217 4.09375 12.1511V10C4.09375 9.69796 3.84891 9.45312 3.54688 9.45312C3.24484 9.45312 3 9.69796 3 10V12.1511C3 14.8248 5.17522 17 7.84895 17H12.151C14.8248 17 17 14.8248 17 12.1511V7.84895C17 5.17522 14.8248 3 12.1511 3V3Z" fill="#C7C8D7" stroke="#C7C8D7" stroke-width="0.5"/>
</svg>
