<svg width="12" height="14" viewBox="0 0 12 14" fill="none" xmlns="http://www.w3.org/2000/svg">
<path d="M6.66684 7.66666H8.00017C8.17698 7.66666 8.34655 7.7369 8.47158 7.86192C8.5966 7.98695 8.66684 8.15652 8.66684 8.33333C8.66684 8.51014 8.5966 8.67971 8.47158 8.80473C8.34655 8.92976 8.17698 9 8.00017 9H6.00017C5.91255 9.00026 5.82574 8.9832 5.74474 8.94979C5.66374 8.91638 5.59014 8.86728 5.52818 8.80532C5.46622 8.74336 5.41713 8.66977 5.38372 8.58876C5.35031 8.50776 5.33324 8.42095 5.33351 8.33333V5.66666C5.33351 5.48985 5.40375 5.32028 5.52877 5.19526C5.65379 5.07023 5.82336 5 6.00017 5C6.17698 5 6.34655 5.07023 6.47158 5.19526C6.5966 5.32028 6.66684 5.48985 6.66684 5.66666V7.66666ZM1.91284 4.90733C1.76052 4.83668 1.62843 4.72882 1.52877 4.59368C1.42911 4.45855 1.36508 4.30049 1.34259 4.1341C1.3201 3.9677 1.33987 3.79832 1.40007 3.64158C1.46028 3.48483 1.55899 3.34577 1.68709 3.23722C1.81519 3.12867 1.96857 3.05412 2.13307 3.02045C2.29757 2.98679 2.4679 2.99508 2.62835 3.04458C2.7888 3.09407 2.9342 3.18317 3.05115 3.30366C3.16809 3.42415 3.25282 3.57214 3.29751 3.734C3.53776 3.59271 3.78875 3.47056 4.04817 3.36866C3.75661 3.16606 3.53737 2.87565 3.42239 2.53974C3.30741 2.20384 3.30271 1.83999 3.40896 1.50122C3.51521 1.16245 3.72687 0.866464 4.01309 0.656389C4.29931 0.446314 4.64513 0.33313 5.00017 0.333329H7.00017C7.35521 0.33313 7.70104 0.446314 7.98726 0.656389C8.27348 0.866464 8.48514 1.16245 8.59139 1.50122C8.69764 1.83999 8.69293 2.20384 8.57795 2.53974C8.46298 2.87565 8.24373 3.16606 7.95217 3.36866C8.21217 3.47133 8.46351 3.59333 8.70284 3.734C8.74753 3.57214 8.83225 3.42415 8.9492 3.30366C9.06615 3.18317 9.21155 3.09407 9.372 3.04458C9.53245 2.99508 9.70278 2.98679 9.86728 3.02045C10.0318 3.05412 10.1852 3.12867 10.3133 3.23722C10.4414 3.34577 10.5401 3.48483 10.6003 3.64158C10.6605 3.79832 10.6803 3.9677 10.6578 4.1341C10.6353 4.30049 10.5712 4.45855 10.4716 4.59368C10.3719 4.72882 10.2398 4.83668 10.0875 4.90733C10.7394 5.68522 11.1558 6.63299 11.2879 7.63932C11.4199 8.64564 11.262 9.66875 10.8328 10.5885C10.4036 11.5082 9.72083 12.2864 8.86475 12.8316C8.00867 13.3768 7.01479 13.6664 5.99984 13.6664C4.98489 13.6664 3.99101 13.3768 3.13493 12.8316C2.27885 12.2864 1.59611 11.5082 1.16689 10.5885C0.737671 9.66875 0.5798 8.64564 0.711816 7.63932C0.843831 6.63299 1.26025 5.68522 1.91217 4.90733H1.91284ZM6.00017 12.3333C6.52546 12.3333 7.04561 12.2299 7.53091 12.0288C8.01621 11.8278 8.45717 11.5332 8.8286 11.1618C9.20004 10.7903 9.49467 10.3494 9.69569 9.86406C9.89671 9.37876 10.0002 8.85862 10.0002 8.33333C10.0002 7.80804 9.89671 7.2879 9.69569 6.80259C9.49467 6.31729 9.20004 5.87634 8.8286 5.5049C8.45717 5.13347 8.01621 4.83883 7.53091 4.63781C7.04561 4.43679 6.52546 4.33333 6.00017 4.33333C4.93931 4.33333 3.92189 4.75476 3.17175 5.5049C2.4216 6.25505 2.00017 7.27246 2.00017 8.33333C2.00017 9.39419 2.4216 10.4116 3.17175 11.1618C3.92189 11.9119 4.93931 12.3333 6.00017 12.3333ZM5.00017 1.66666C4.91177 1.66666 4.82698 1.70178 4.76447 1.76429C4.70196 1.82681 4.66684 1.91159 4.66684 2C4.66684 2.0884 4.70196 2.17319 4.76447 2.2357C4.82698 2.29821 4.91177 2.33333 5.00017 2.33333H7.00017C7.08858 2.33333 7.17336 2.29821 7.23588 2.2357C7.29839 2.17319 7.33351 2.0884 7.33351 2C7.33351 1.91159 7.29839 1.82681 7.23588 1.76429C7.17336 1.70178 7.08858 1.66666 7.00017 1.66666H5.00017Z" fill="#C7C8D7"/>
</svg>
