<svg width="134" height="50" viewBox="0 0 134 50" fill="none" xmlns="http://www.w3.org/2000/svg">
<g filter="url(#filter0_d)">
<rect width="134" height="46" fill="#27AE60"/>
</g>
<line x1="91.5" y1="14.2264" x2="91.5" y2="31.5014" stroke="white"/>
<path d="M111.548 17.8806C111.487 17.7809 111.405 17.6994 111.309 17.6431C111.214 17.5868 111.108 17.5574 111 17.5574C110.892 17.5574 110.786 17.5868 110.69 17.6431C110.595 17.6994 110.513 17.7809 110.452 17.8806L104.452 27.6041C104.382 27.7163 104.342 27.8477 104.334 27.984C104.326 28.1203 104.352 28.2563 104.409 28.3773C104.465 28.4982 104.55 28.5995 104.654 28.6701C104.759 28.7407 104.878 28.7779 105 28.7777L117 28.7777C117.121 28.7771 117.24 28.7395 117.344 28.6687C117.448 28.5979 117.532 28.4967 117.589 28.3761C117.645 28.2554 117.671 28.1197 117.664 27.9837C117.657 27.8477 117.617 27.7165 117.548 27.6041L111.548 17.8806Z" fill="white"/>
<path d="M25.2012 28.3415H23.5605V23.8366H18.9531V28.3415H17.3193V18.3473H18.9531V22.4352H23.5605V18.3473H25.2012V28.3415ZM27.833 28.3415V18.3473H29.4668V28.3415H27.833ZM36.2002 22.9206H39.8779V27.9381C39.2764 28.1341 38.6976 28.2731 38.1416 28.3551C37.5902 28.4372 36.9932 28.4782 36.3506 28.4782C34.8376 28.4782 33.6709 28.0316 32.8506 27.1383C32.0303 26.2406 31.6201 24.9759 31.6201 23.3444C31.6201 21.7357 32.0827 20.4779 33.0078 19.571C33.9329 18.6595 35.2067 18.2038 36.8291 18.2038C37.8727 18.2038 38.8617 18.4043 39.7959 18.8053L39.2217 20.1657C38.4105 19.792 37.5993 19.6051 36.7881 19.6051C35.7217 19.6051 34.8786 19.9401 34.2588 20.61C33.639 21.2799 33.3291 22.196 33.3291 23.3581C33.3291 24.5794 33.6071 25.5091 34.1631 26.1471C34.7236 26.7806 35.528 27.0973 36.5762 27.0973C37.1048 27.0973 37.6699 27.0312 38.2715 26.8991V24.3219H36.2002V22.9206ZM50.166 28.3415H48.5254V23.8366H43.918V28.3415H42.2842V18.3473H43.918V22.4352H48.5254V18.3473H50.166V28.3415ZM58.4512 28.3415H52.7979V18.3473H58.4512V19.7282H54.4316V22.4489H58.1982V23.8161H54.4316V26.9538H58.4512V28.3415ZM62.252 22.9958H63.3867C64.1478 22.9958 64.6992 22.8545 65.041 22.5719C65.3828 22.2894 65.5537 21.8701 65.5537 21.3141C65.5537 20.749 65.3691 20.3434 65 20.0973C64.6309 19.8512 64.0749 19.7282 63.332 19.7282H62.252V22.9958ZM62.252 24.3493V28.3415H60.6182V18.3473H63.4414C64.7311 18.3473 65.6859 18.5889 66.3057 19.0719C66.9255 19.555 67.2354 20.2842 67.2354 21.2594C67.2354 22.5036 66.5882 23.39 65.2939 23.9186L68.1172 28.3415H66.2578L63.8652 24.3493H62.252Z" fill="white"/>
<defs>
<filter id="filter0_d" x="0" y="0" width="134" height="50" filterUnits="userSpaceOnUse" color-interpolation-filters="sRGB">
<feFlood flood-opacity="0" result="BackgroundImageFix"/>
<feColorMatrix in="SourceAlpha" type="matrix" values="0 0 0 0 0 0 0 0 0 0 0 0 0 0 0 0 0 0 127 0"/>
<feOffset dy="4"/>
<feColorMatrix type="matrix" values="0 0 0 0 0.129412 0 0 0 0 0.580392 0 0 0 0 0.321569 0 0 0 1 0"/>
<feBlend mode="normal" in2="BackgroundImageFix" result="effect1_dropShadow"/>
<feBlend mode="normal" in="SourceGraphic" in2="effect1_dropShadow" result="shape"/>
</filter>
</defs>
</svg>
