<svg width="135" height="54" viewBox="0 0 135 54" fill="none" xmlns="http://www.w3.org/2000/svg">
<g filter="url(#filter0_i)">
<rect width="135" height="54" fill="#F2C94C"/>
</g>
<path d="M41.0549 31.169V19.7471H43.4768V31.169H41.0549ZM56.4846 31.169H53.4065L48.4377 22.5284H48.3674C48.4664 24.0544 48.5159 25.143 48.5159 25.794V31.169H46.3518V19.7471H49.4065L54.3674 28.3018H54.4221C54.344 26.8174 54.3049 25.768 54.3049 25.1534V19.7471H56.4846V31.169ZM65.883 19.7471H68.3284L64.4455 31.169H61.8049L57.9299 19.7471H60.3752L62.5237 26.544C62.6435 26.945 62.7659 27.4138 62.8909 27.9503C63.0211 28.4815 63.1018 28.8513 63.133 29.0596C63.1903 28.5805 63.3856 27.7419 63.719 26.544L65.883 19.7471ZM76.3518 31.169H69.7737V19.7471H76.3518V21.7315H72.1955V24.2393H76.0627V26.2237H72.1955V29.169H76.3518V31.169ZM85.4846 27.9971C85.4846 29.0284 85.1122 29.8409 84.3674 30.4346C83.6278 31.0284 82.5966 31.3253 81.2737 31.3253C80.0549 31.3253 78.9768 31.0961 78.0393 30.6378V28.3878C78.8101 28.7315 79.4612 28.9737 79.9924 29.1143C80.5289 29.2549 81.0185 29.3253 81.4612 29.3253C81.9924 29.3253 82.3987 29.2237 82.6799 29.0206C82.9664 28.8174 83.1096 28.5154 83.1096 28.1143C83.1096 27.8904 83.0471 27.6924 82.9221 27.5206C82.7971 27.3435 82.6122 27.1742 82.3674 27.0128C82.1278 26.8513 81.6356 26.5935 80.8909 26.2393C80.1929 25.9112 79.6695 25.5961 79.3205 25.294C78.9716 24.9919 78.6929 24.6404 78.4846 24.2393C78.2763 23.8383 78.1721 23.3695 78.1721 22.8331C78.1721 21.8227 78.5133 21.0284 79.1955 20.4503C79.883 19.8721 80.831 19.5831 82.0393 19.5831C82.633 19.5831 83.1981 19.6534 83.7346 19.794C84.2763 19.9346 84.8414 20.1325 85.4299 20.3878L84.6487 22.2706C84.0393 22.0206 83.5341 21.8461 83.133 21.7471C82.7372 21.6482 82.3466 21.5987 81.9612 21.5987C81.5028 21.5987 81.1513 21.7055 80.9065 21.919C80.6617 22.1325 80.5393 22.4112 80.5393 22.7549C80.5393 22.9685 80.5888 23.156 80.6877 23.3174C80.7867 23.4737 80.9429 23.6273 81.1565 23.7784C81.3752 23.9242 81.8883 24.1898 82.6955 24.5753C83.7633 25.0857 84.495 25.5987 84.8909 26.1143C85.2867 26.6247 85.4846 27.2523 85.4846 27.9971ZM91.9612 31.169H89.5393V21.7628H86.4377V19.7471H95.0627V21.7628H91.9612V31.169Z" fill="#3F457A"/>
<defs>
<filter id="filter0_i" x="0" y="0" width="135" height="54" filterUnits="userSpaceOnUse" color-interpolation-filters="sRGB">
<feFlood flood-opacity="0" result="BackgroundImageFix"/>
<feBlend mode="normal" in="SourceGraphic" in2="BackgroundImageFix" result="shape"/>
<feColorMatrix in="SourceAlpha" type="matrix" values="0 0 0 0 0 0 0 0 0 0 0 0 0 0 0 0 0 0 127 0" result="hardAlpha"/>
<feOffset dy="-3"/>
<feComposite in2="hardAlpha" operator="arithmetic" k2="-1" k3="1"/>
<feColorMatrix type="matrix" values="0 0 0 0 0 0 0 0 0 0 0 0 0 0 0 0 0 0 0.15 0"/>
<feBlend mode="normal" in2="shape" result="effect1_innerShadow"/>
</filter>
</defs>
</svg>
