<svg width="135" height="54" viewBox="0 0 135 54" fill="none" xmlns="http://www.w3.org/2000/svg">
<g filter="url(#filter0_i)">
<rect width="135" height="54" fill="#F2C94C"/>
</g>
<path d="M32.2502 31.169V19.7471H34.6721V31.169H32.2502ZM47.6799 31.169H44.6018L39.633 22.5284H39.5627C39.6617 24.0544 39.7112 25.143 39.7112 25.794V31.169H37.5471V19.7471H40.6018L45.5627 28.3018H45.6174C45.5393 26.8174 45.5002 25.768 45.5002 25.1534V19.7471H47.6799V31.169ZM57.0784 19.7471H59.5237L55.6409 31.169H53.0002L49.1252 19.7471H51.5705L53.719 26.544C53.8388 26.945 53.9612 27.4138 54.0862 27.9503C54.2164 28.4815 54.2971 28.8513 54.3284 29.0596C54.3856 28.5805 54.581 27.7419 54.9143 26.544L57.0784 19.7471ZM67.5471 31.169H60.969V19.7471H67.5471V21.7315H63.3909V24.2393H67.258V26.2237H63.3909V29.169H67.5471V31.169ZM72.3596 24.8174H73.1409C73.9065 24.8174 74.4716 24.6898 74.8362 24.4346C75.2008 24.1794 75.383 23.7784 75.383 23.2315C75.383 22.6898 75.1955 22.3044 74.8205 22.0753C74.4508 21.8461 73.8752 21.7315 73.094 21.7315H72.3596V24.8174ZM72.3596 26.7862V31.169H69.9377V19.7471H73.2659C74.8179 19.7471 75.9664 20.031 76.7112 20.5987C77.456 21.1612 77.8284 22.018 77.8284 23.169C77.8284 23.8409 77.6435 24.4398 77.2737 24.9659C76.9039 25.4867 76.3804 25.8956 75.7034 26.1924C77.4221 28.7602 78.5419 30.419 79.0627 31.169H76.3752L73.6487 26.7862H72.3596ZM84.9065 31.169H82.4846V21.7628H79.383V19.7471H88.008V21.7628H84.9065V31.169ZM89.7659 31.169V19.7471H92.1877V31.169H89.7659ZM97.4846 24.8174H98.2659C99.0315 24.8174 99.5966 24.6898 99.9612 24.4346C100.326 24.1794 100.508 23.7784 100.508 23.2315C100.508 22.6898 100.321 22.3044 99.9455 22.0753C99.5757 21.8461 99.0002 21.7315 98.219 21.7315H97.4846V24.8174ZM97.4846 26.7862V31.169H95.0627V19.7471H98.3909C99.9429 19.7471 101.091 20.031 101.836 20.5987C102.581 21.1612 102.953 22.018 102.953 23.169C102.953 23.8409 102.768 24.4398 102.399 24.9659C102.029 25.4867 101.505 25.8956 100.828 26.1924C102.547 28.7602 103.667 30.419 104.188 31.169H101.5L98.7737 26.7862H97.4846Z" fill="#3F457A"/>
<defs>
<filter id="filter0_i" x="0" y="0" width="135" height="54" filterUnits="userSpaceOnUse" color-interpolation-filters="sRGB">
<feFlood flood-opacity="0" result="BackgroundImageFix"/>
<feBlend mode="normal" in="SourceGraphic" in2="BackgroundImageFix" result="shape"/>
<feColorMatrix in="SourceAlpha" type="matrix" values="0 0 0 0 0 0 0 0 0 0 0 0 0 0 0 0 0 0 127 0" result="hardAlpha"/>
<feOffset dy="-3"/>
<feComposite in2="hardAlpha" operator="arithmetic" k2="-1" k3="1"/>
<feColorMatrix type="matrix" values="0 0 0 0 0 0 0 0 0 0 0 0 0 0 0 0 0 0 0.15 0"/>
<feBlend mode="normal" in2="shape" result="effect1_innerShadow"/>
</filter>
</defs>
</svg>
