<svg width="179" height="47" viewBox="0 0 179 47" fill="none" xmlns="http://www.w3.org/2000/svg">
<g filter="url(#filter0_d)">
<rect width="134" height="46" fill="#22264A"/>
</g>
<line opacity="0.2" x1="91.5" y1="14.2264" x2="91.5" y2="31.5014" stroke="white"/>
<g opacity="0.2">
<path d="M110.452 29.2224C110.513 29.322 110.595 29.4035 110.691 29.4598C110.786 29.5161 110.892 29.5455 111 29.5455C111.108 29.5455 111.214 29.5161 111.31 29.4598C111.405 29.4035 111.487 29.322 111.548 29.2224L117.548 19.4988C117.618 19.3866 117.658 19.2553 117.666 19.119C117.674 18.9827 117.648 18.8466 117.591 18.7257C117.535 18.6047 117.45 18.5034 117.346 18.4328C117.241 18.3622 117.122 18.325 117 18.3252H105C104.879 18.3258 104.76 18.3635 104.656 18.4342C104.552 18.505 104.468 18.6062 104.411 18.7269C104.355 18.8476 104.329 18.9832 104.336 19.1192C104.343 19.2552 104.383 19.3864 104.452 19.4988L110.452 29.2224Z" fill="white"/>
</g>
<path opacity="0.2" d="M17.3193 28.3415V18.3473H18.9531V26.9401H23.1846V28.3415H17.3193ZM33.7803 23.3307C33.7803 24.9577 33.3724 26.2223 32.5566 27.1247C31.7454 28.027 30.5947 28.4782 29.1045 28.4782C27.596 28.4782 26.4362 28.0316 25.625 27.1383C24.8184 26.2405 24.415 24.9668 24.415 23.317C24.415 21.6673 24.8206 20.4004 25.6318 19.5163C26.4476 18.6322 27.6097 18.1901 29.1182 18.1901C30.6038 18.1901 31.7523 18.639 32.5635 19.5368C33.3747 20.4346 33.7803 21.6992 33.7803 23.3307ZM26.1514 23.3307C26.1514 24.5612 26.3997 25.4954 26.8965 26.1335C27.3932 26.7669 28.1292 27.0836 29.1045 27.0836C30.0752 27.0836 30.8066 26.7692 31.2988 26.1403C31.7956 25.5114 32.0439 24.5749 32.0439 23.3307C32.0439 22.1048 31.7979 21.1751 31.3057 20.5417C30.818 19.9082 30.0889 19.5915 29.1182 19.5915C28.1383 19.5915 27.3978 19.9082 26.8965 20.5417C26.3997 21.1751 26.1514 22.1048 26.1514 23.3307ZM45.1484 28.3415H43.3711L41.6758 22.3805C41.6029 22.1208 41.5117 21.7471 41.4023 21.2594C41.293 20.7672 41.2269 20.4254 41.2041 20.234C41.1585 20.5257 41.0833 20.904 40.9785 21.3688C40.8783 21.8336 40.7939 22.18 40.7256 22.4079L39.0713 28.3415H37.2939L36.002 23.3376L34.6895 18.3473H36.3574L37.7861 24.1715C38.0094 25.1058 38.1689 25.9307 38.2646 26.6461C38.3148 26.2588 38.39 25.8258 38.4902 25.3473C38.5905 24.8688 38.6816 24.4814 38.7637 24.1852L40.3906 18.3473H42.0107L43.6787 24.2126C43.8382 24.7549 44.0068 25.5661 44.1846 26.6461C44.2529 25.9945 44.417 25.165 44.6768 24.1579L46.0986 18.3473H47.7529L45.1484 28.3415ZM54.8281 28.3415H49.1748V18.3473H54.8281V19.7282H50.8086V22.4489H54.5752V23.8161H50.8086V26.9538H54.8281V28.3415ZM58.6289 22.9958H59.7637C60.5247 22.9958 61.0762 22.8545 61.418 22.5719C61.7598 22.2894 61.9307 21.8701 61.9307 21.3141C61.9307 20.749 61.7461 20.3434 61.377 20.0973C61.0078 19.8512 60.4518 19.7282 59.709 19.7282H58.6289V22.9958ZM58.6289 24.3493V28.3415H56.9951V18.3473H59.8184C61.1081 18.3473 62.0628 18.5889 62.6826 19.0719C63.3024 19.555 63.6123 20.2842 63.6123 21.2594C63.6123 22.5036 62.9652 23.39 61.6709 23.9186L64.4941 28.3415H62.6348L60.2422 24.3493H58.6289Z" fill="white"/>
<defs>
<filter id="filter0_d" x="0" y="0" width="134" height="50" filterUnits="userSpaceOnUse" color-interpolation-filters="sRGB">
<feFlood flood-opacity="0" result="BackgroundImageFix"/>
<feColorMatrix in="SourceAlpha" type="matrix" values="0 0 0 0 0 0 0 0 0 0 0 0 0 0 0 0 0 0 127 0"/>
<feOffset dy="4"/>
<feColorMatrix type="matrix" values="0 0 0 0 0.113725 0 0 0 0 0.12549 0 0 0 0 0.247059 0 0 0 1 0"/>
<feBlend mode="normal" in2="BackgroundImageFix" result="effect1_dropShadow"/>
<feBlend mode="normal" in="SourceGraphic" in2="effect1_dropShadow" result="shape"/>
</filter>
</defs>
</svg>
