<svg width="20" height="20" viewBox="0 0 20 20" fill="none" xmlns="http://www.w3.org/2000/svg">
<path d="M10.0078 16C10.2839 16 10.5182 15.9036 10.7109 15.7109C10.9036 15.5182 11 15.2839 11 15.0078C11 14.7318 10.9036 14.4948 10.7109 14.2969C10.5182 14.099 10.2839 14 10.0078 14C9.73177 14 9.49479 14.099 9.29688 14.2969C9.09896 14.4948 9 14.7318 9 15.0078C9 15.2839 9.09896 15.5182 9.29688 15.7109C9.49479 15.9036 9.73177 16 10.0078 16ZM10 4C8.89583 4 7.95312 4.39062 7.17188 5.17188C6.39062 5.95312 6 6.89583 6 8C6 8.28125 6.09635 8.51823 6.28906 8.71094C6.48177 8.90365 6.71615 9 6.99219 9C7.26823 9 7.50521 8.90365 7.70312 8.71094C7.90104 8.51823 8 8.28125 8 8C8 7.44792 8.19531 6.97656 8.58594 6.58594C8.97656 6.19531 9.44792 6 10 6C10.5521 6 11.0234 6.19531 11.4141 6.58594C11.8047 6.97656 12 7.44792 12 8C12 8.55208 11.8047 9.02344 11.4141 9.41406C11.0234 9.80469 10.5521 10 10 10C9.72917 10 9.49479 10.2057 9.29688 10.6172C9.09896 11.0286 9 11.4896 9 12C9 12.2812 9.09635 12.5182 9.28906 12.7109C9.48177 12.9036 9.71875 13 10 13C10.2812 13 10.5182 12.9036 10.7109 12.7109C10.9036 12.5182 11 12.2812 11 12V11.875C11.875 11.6458 12.5938 11.1719 13.1562 10.4531C13.7188 9.73438 14 8.91667 14 8C14 6.89583 13.6094 5.95312 12.8281 5.17188C12.0469 4.39062 11.1042 4 10 4Z" fill="#C7C8D7"/>
</svg>
