<svg width="31" height="27" viewBox="0 0 31 27" fill="none" xmlns="http://www.w3.org/2000/svg">
<path d="M29.7826 13.3333C29.7826 20.0149 23.479 25.6667 15.3913 25.6667C7.30364 25.6667 1 20.0149 1 13.3333C1 6.65175 7.30364 1 15.3913 1C23.479 1 29.7826 6.65175 29.7826 13.3333Z" stroke="#8A919D" stroke-width="2"/>
<path d="M21.1423 13.6907C21.1701 13.4907 21.1885 13.2827 21.1885 13.0667C21.1885 12.8507 21.1701 12.6427 21.1331 12.4427L22.6938 11.3867C22.8323 11.2907 22.8693 11.1147 22.7861 10.9787L21.3086 8.76269C21.2162 8.61869 21.0223 8.57069 20.8561 8.61869L19.0183 9.25869C18.6305 9.00269 18.2242 8.79469 17.7717 8.63469L17.4946 6.93869C17.4669 6.77869 17.3099 6.66669 17.1252 6.66669H14.1701C13.9854 6.66669 13.8376 6.77869 13.8099 6.93869L13.5329 8.63469C13.0804 8.79469 12.6648 9.01069 12.2862 9.25869L10.4485 8.61869C10.2822 8.56269 10.0883 8.61869 9.99596 8.76269L8.5184 10.9787C8.42605 11.1227 8.46299 11.2907 8.61075 11.3867L10.1714 12.4427C10.1345 12.6427 10.1068 12.8587 10.1068 13.0667C10.1068 13.2747 10.1253 13.4907 10.1622 13.6907L8.60151 14.7467C8.46299 14.8427 8.42605 15.0187 8.50916 15.1547L9.98673 17.3707C10.0791 17.5147 10.273 17.5627 10.4392 17.5147L12.277 16.8747C12.6648 17.1307 13.0711 17.3387 13.5237 17.4987L13.8007 19.1947C13.8376 19.3547 13.9854 19.4667 14.1701 19.4667H17.1252C17.3099 19.4667 17.4669 19.3547 17.4854 19.1947L17.7624 17.4987C18.2149 17.3387 18.6305 17.1227 19.0091 16.8747L20.8468 17.5147C21.0131 17.5707 21.207 17.5147 21.2993 17.3707L22.7769 15.1547C22.8693 15.0107 22.8323 14.8427 22.6846 14.7467L21.1423 13.6907ZM15.6477 15.4667C14.1239 15.4667 12.8772 14.3867 12.8772 13.0667C12.8772 11.7467 14.1239 10.6667 15.6477 10.6667C17.1714 10.6667 18.4181 11.7467 18.4181 13.0667C18.4181 14.3867 17.1714 15.4667 15.6477 15.4667Z" fill="#A7A7A7"/>
</svg>
