<svg width="18" height="18" viewBox="0 0 18 18" fill="none" xmlns="http://www.w3.org/2000/svg">
<path d="M0 9.41607C0 10.2688 0.317422 11.0057 0.952265 11.627C1.58711 12.2482 2.34772 12.5588 3.23411 12.5588H4.77929C5.11468 12.5588 5.36622 12.6806 5.53392 12.9243L7.0791 15.3361C7.51031 16.067 8.19307 16.4324 9.12737 16.4324H10.6726C11.1038 16.4324 11.4811 16.2802 11.8045 15.9756C12.1279 15.6711 12.2896 15.3118 12.2896 14.8976V2.3997C12.2896 1.98554 12.1339 1.62619 11.8225 1.32166C11.511 1.01713 11.1277 0.864868 10.6726 0.864868H9.12737C8.19307 0.864868 7.51031 1.2303 7.0791 1.96118L5.53392 4.37305C5.36622 4.61668 5.11468 4.73849 4.77929 4.73849H3.23411C2.34772 4.73849 1.58711 5.04911 0.952265 5.67035C0.317422 6.29159 0 7.02855 0 7.88124V9.41607ZM1.54518 7.88124C1.54518 7.44271 1.70689 7.07119 2.0303 6.76666C2.35371 6.46213 2.75498 6.30986 3.23411 6.30986H4.77929C5.64172 6.30986 6.32448 5.94443 6.82756 5.21355L8.37274 2.80168C8.54044 2.53369 8.79198 2.3997 9.12737 2.3997H10.7444V14.8976H9.12737C8.79198 14.8976 8.54044 14.7636 8.37274 14.4956L6.82756 12.0837C6.44426 11.3529 5.7615 10.9874 4.77929 10.9874H3.23411C2.75498 10.9874 2.35371 10.8352 2.0303 10.5306C1.70689 10.2261 1.54518 9.85459 1.54518 9.41607V7.88124ZM14.5894 10.9874V6.30986C14.5894 5.79825 14.3259 5.54245 13.7989 5.54245C13.2958 5.54245 13.0442 5.79825 13.0442 6.30986V10.9874C13.0442 11.4991 13.2958 11.7549 13.7989 11.7549C14.3259 11.7549 14.5894 11.4991 14.5894 10.9874ZM16.0987 3.20366C15.5956 3.20366 15.344 3.45946 15.344 3.97107V13.3262C15.344 13.8378 15.5956 14.0936 16.0987 14.0936C16.6257 14.0936 16.8892 13.8378 16.8892 13.3262V3.97107C16.8892 3.45946 16.6257 3.20366 16.0987 3.20366Z" fill="#C7C8D7"/>
</svg>
