<svg width="31" height="27" viewBox="0 0 31 27" fill="none" xmlns="http://www.w3.org/2000/svg">
<path d="M29.7826 13.3333C29.7826 20.0149 23.479 25.6667 15.3913 25.6667C7.30364 25.6667 1 20.0149 1 13.3333C1 6.65175 7.30364 1 15.3913 1C23.479 1 29.7826 6.65175 29.7826 13.3333Z" stroke="#8A919D" stroke-width="2"/>
<g clip-path="url(#clip0)">
<path d="M22.4219 11.9162H21.0465V18.9086H22.4219V11.9162Z" fill="#A7A7A7"/>
<path d="M18.4675 14.1738H17.0921V18.9086H18.4675V14.1738Z" fill="#A7A7A7"/>
<path d="M14.4788 16.5255H13.1033V18.9086H14.4788V16.5255Z" fill="#A7A7A7"/>
<path d="M10.5244 15.8671H9.14893V18.9086H10.5244V15.8671Z" fill="#A7A7A7"/>
<path d="M22.7557 8.18798C22.264 7.67061 21.4078 7.61103 20.837 8.05942C20.4278 8.38239 20.2662 8.89663 20.4278 9.36697L18.7842 10.4299C18.2787 9.91884 17.4122 9.87808 16.8517 10.3421C16.4253 10.6933 16.2877 11.2483 16.5009 11.7344L14.9673 12.9133C14.5684 12.327 13.726 12.1451 13.083 12.5089C12.7975 12.6719 12.5844 12.9228 12.4915 13.2175L11.1917 12.7378C11.0851 12.0542 10.394 11.5807 9.64435 11.6748C8.89473 11.7689 8.3755 12.4022 8.47866 13.0858C8.58526 13.7694 9.27642 14.2428 10.026 14.1488C10.559 14.0798 10.9992 13.7349 11.1505 13.2645L12.4503 13.7443C12.55 14.4278 13.2377 14.9076 13.9873 14.8198C14.7369 14.732 15.263 14.1017 15.1667 13.4182L16.8104 12.1545C17.3468 12.6406 18.2134 12.6374 18.7463 12.1483C19.1143 11.8127 19.2381 11.3142 19.0696 10.8627L20.696 9.80909C21.1877 10.3265 22.044 10.386 22.6148 9.93765C23.1856 9.48926 23.2475 8.70849 22.7557 8.18798Z" fill="#A7A7A7"/>
</g>
<defs>
<clipPath id="clip0">
<rect width="14.6217" height="13.3333" fill="white" transform="translate(8.46533 6.66669)"/>
</clipPath>
</defs>
</svg>
