<svg width="134" height="50" viewBox="0 0 134 50" fill="none" xmlns="http://www.w3.org/2000/svg">
<g filter="url(#filter0_d)">
<rect width="134" height="46" fill="#22264A"/>
</g>
<line opacity="0.2" x1="91.5" y1="14.2264" x2="91.5" y2="31.5014" stroke="white"/>
<g opacity="0.2">
<path d="M111.548 17.8806C111.487 17.7809 111.405 17.6994 111.309 17.6431C111.214 17.5868 111.108 17.5574 111 17.5574C110.892 17.5574 110.786 17.5868 110.69 17.6431C110.595 17.6994 110.513 17.7809 110.452 17.8806L104.452 27.6041C104.382 27.7163 104.342 27.8477 104.334 27.984C104.326 28.1203 104.352 28.2563 104.409 28.3773C104.465 28.4982 104.55 28.5995 104.654 28.6701C104.759 28.7407 104.878 28.7779 105 28.7777L117 28.7777C117.121 28.7771 117.24 28.7395 117.344 28.6687C117.448 28.5979 117.532 28.4967 117.589 28.3761C117.645 28.2554 117.671 28.1197 117.664 27.9837C117.657 27.8477 117.617 27.7165 117.548 27.6041L111.548 17.8806Z" fill="white"/>
</g>
<path opacity="0.2" d="M23.082 25.6276C23.082 26.5163 22.7607 27.2135 22.1182 27.7194C21.4756 28.2253 20.5892 28.4782 19.459 28.4782C18.3288 28.4782 17.4036 28.3027 16.6836 27.9518V26.4069C17.1393 26.6211 17.6224 26.7897 18.1328 26.9128C18.6478 27.0358 19.1263 27.0973 19.5684 27.0973C20.2155 27.0973 20.6917 26.9743 20.9971 26.7282C21.307 26.4821 21.4619 26.1517 21.4619 25.737C21.4619 25.3633 21.3206 25.0465 21.0381 24.7868C20.7555 24.527 20.1722 24.2194 19.2881 23.8639C18.3766 23.4948 17.734 23.0732 17.3604 22.5993C16.9867 22.1253 16.7998 21.5557 16.7998 20.8903C16.7998 20.0563 17.096 19.4001 17.6885 18.9215C18.2809 18.443 19.0762 18.2038 20.0742 18.2038C21.0312 18.2038 21.9837 18.4134 22.9316 18.8327L22.4121 20.1657C21.5234 19.792 20.7305 19.6051 20.0332 19.6051C19.5046 19.6051 19.1035 19.7214 18.8301 19.9538C18.5566 20.1816 18.4199 20.4847 18.4199 20.863C18.4199 21.1227 18.4746 21.346 18.584 21.5329C18.6934 21.7152 18.8734 21.8883 19.124 22.0524C19.3747 22.2165 19.8258 22.4329 20.4775 22.7018C21.2113 23.0072 21.749 23.292 22.0908 23.5563C22.4326 23.8206 22.6833 24.1191 22.8428 24.4518C23.0023 24.7845 23.082 25.1764 23.082 25.6276ZM32.8506 18.3473V24.8141C32.8506 25.5524 32.6911 26.1995 32.3721 26.7555C32.0576 27.307 31.5996 27.7331 30.998 28.0339C30.401 28.3301 29.6855 28.4782 28.8516 28.4782C27.612 28.4782 26.6481 28.1501 25.96 27.4938C25.2718 26.8376 24.9277 25.9352 24.9277 24.7868V18.3473H26.5684V24.6706C26.5684 25.4954 26.7598 26.1038 27.1426 26.4958C27.5254 26.8877 28.1133 27.0837 28.9062 27.0837C30.4466 27.0837 31.2168 26.2747 31.2168 24.6569V18.3473H32.8506ZM35.4072 18.3473H38.374C39.7503 18.3473 40.7438 18.5478 41.3545 18.9489C41.9697 19.3499 42.2773 19.9834 42.2773 20.8493C42.2773 21.4326 42.127 21.918 41.8262 22.3053C41.5254 22.6927 41.0924 22.9365 40.5273 23.0368V23.1051C41.2292 23.2373 41.7441 23.4993 42.0723 23.8913C42.4049 24.2786 42.5713 24.805 42.5713 25.4704C42.5713 26.3682 42.2568 27.0723 41.6279 27.5827C41.0036 28.0885 40.1331 28.3415 39.0166 28.3415H35.4072V18.3473ZM37.041 22.4762H38.6133C39.2969 22.4762 39.7959 22.3691 40.1104 22.1549C40.4248 21.9362 40.582 21.5671 40.582 21.0475C40.582 20.5781 40.4111 20.2386 40.0693 20.029C39.7321 19.8193 39.1943 19.7145 38.4561 19.7145H37.041V22.4762ZM37.041 23.8024V26.9674H38.7773C39.4609 26.9674 39.9759 26.8376 40.3223 26.5778C40.6732 26.3135 40.8486 25.8988 40.8486 25.3337C40.8486 24.8141 40.6709 24.429 40.3154 24.1784C39.96 23.9277 39.4199 23.8024 38.6953 23.8024H37.041ZM50.3027 28.3415H44.6494V18.3473H50.3027V19.7282H46.2832V22.4489H50.0498V23.8161H46.2832V26.9538H50.3027V28.3415Z" fill="white"/>
<defs>
<filter id="filter0_d" x="0" y="0" width="134" height="50" filterUnits="userSpaceOnUse" color-interpolation-filters="sRGB">
<feFlood flood-opacity="0" result="BackgroundImageFix"/>
<feColorMatrix in="SourceAlpha" type="matrix" values="0 0 0 0 0 0 0 0 0 0 0 0 0 0 0 0 0 0 127 0"/>
<feOffset dy="4"/>
<feColorMatrix type="matrix" values="0 0 0 0 0.113725 0 0 0 0 0.12549 0 0 0 0 0.247059 0 0 0 1 0"/>
<feBlend mode="normal" in2="BackgroundImageFix" result="effect1_dropShadow"/>
<feBlend mode="normal" in="SourceGraphic" in2="effect1_dropShadow" result="shape"/>
</filter>
</defs>
</svg>
