<svg width="27" height="12" viewBox="0 0 27 12" fill="none" xmlns="http://www.w3.org/2000/svg">
<path d="M7.21504 0.323151C7.15388 0.223491 7.07204 0.142004 6.97658 0.0857118C6.88111 0.0294183 6.77488 5.07887e-06 6.66704 5.06829e-06C6.55919 5.05771e-06 6.45296 0.0294183 6.3575 0.0857117C6.26203 0.142004 6.1802 0.223491 6.11904 0.323151L0.119036 10.0467C0.0495854 10.1589 0.00885971 10.2902 0.00127989 10.4265C-0.00629897 10.5628 0.0195589 10.6989 0.0760451 10.8198C0.132532 10.9408 0.217486 11.0421 0.321679 11.1127C0.425871 11.1833 0.545316 11.2205 0.667036 11.2203L12.667 11.2203C12.7885 11.2197 12.9075 11.182 13.0112 11.1113C13.115 11.0405 13.1996 10.9393 13.256 10.8186C13.3123 10.6979 13.3383 10.5623 13.3311 10.4263C13.3239 10.2903 13.2838 10.1591 13.215 10.0467L7.21504 0.323151Z" fill="#27AE60"/>
<path d="M19.1172 10.8971C19.1784 10.9968 19.2602 11.0783 19.3557 11.1346C19.4512 11.1909 19.5574 11.2203 19.6652 11.2203C19.7731 11.2203 19.8793 11.1909 19.9748 11.1346C20.0702 11.0783 20.1521 10.9968 20.2132 10.8971L26.2132 1.17356C26.2827 1.06141 26.3234 0.930047 26.331 0.793748C26.3386 0.657449 26.3127 0.521426 26.2562 0.400457C26.1997 0.279489 26.1148 0.178202 26.0106 0.107601C25.9064 0.0370005 25.787 -0.000214176 25.6652 9.27221e-07L13.6652 9.27221e-07C13.5438 0.000563705 13.4248 0.0382569 13.321 0.109027C13.2173 0.179797 13.1326 0.280966 13.0763 0.401654C13.0199 0.522343 12.994 0.657984 13.0012 0.793992C13.0084 0.929999 13.0485 1.06123 13.1172 1.17356L19.1172 10.8971Z" fill="#EB5757"/>
</svg>
