<svg width="39" height="30" viewBox="0 0 39 30" fill="none" xmlns="http://www.w3.org/2000/svg">
<g filter="url(#filter0_i)">
<rect width="38.4682" height="30" fill="#2F80ED"/>
</g>
<path d="M10.2108 13.7627L7.67465 10.0645H9.50668L11.2293 12.71L12.9657 10.0645H14.784L12.2411 13.7627L14.9139 17.625H13.0955L11.2293 14.7949L9.36996 17.625H7.5516L10.2108 13.7627ZM20.4237 17.625H18.8172V11.1719C18.8172 10.4017 18.8355 9.79102 18.8719 9.33984C18.7671 9.44922 18.6372 9.56999 18.4823 9.70215C18.3319 9.83431 17.8215 10.2536 16.951 10.96L16.1444 9.94141L19.0838 7.63086H20.4237V17.625ZM30.4793 12.6279C30.4793 14.3643 30.1991 15.654 29.6385 16.4971C29.0825 17.3402 28.2303 17.7617 27.0819 17.7617C25.9699 17.7617 25.1268 17.3265 24.5526 16.4561C23.9784 15.5856 23.6912 14.3096 23.6912 12.6279C23.6912 10.8643 23.9692 9.56543 24.5252 8.73145C25.0858 7.8929 25.938 7.47363 27.0819 7.47363C28.1984 7.47363 29.0438 7.91113 29.618 8.78613C30.1922 9.66113 30.4793 10.9417 30.4793 12.6279ZM25.3182 12.6279C25.3182 13.9906 25.4572 14.9635 25.7352 15.5469C26.0177 16.1302 26.4666 16.4219 27.0819 16.4219C27.6971 16.4219 28.146 16.1257 28.4286 15.5332C28.7157 14.9408 28.8592 13.9723 28.8592 12.6279C28.8592 11.2881 28.7157 10.3197 28.4286 9.72266C28.146 9.12109 27.6971 8.82031 27.0819 8.82031C26.4666 8.82031 26.0177 9.11426 25.7352 9.70215C25.4572 10.29 25.3182 11.2653 25.3182 12.6279Z" fill="white"/>
<defs>
<filter id="filter0_i" x="0" y="0" width="38.4682" height="30" filterUnits="userSpaceOnUse" color-interpolation-filters="sRGB">
<feFlood flood-opacity="0" result="BackgroundImageFix"/>
<feBlend mode="normal" in="SourceGraphic" in2="BackgroundImageFix" result="shape"/>
<feColorMatrix in="SourceAlpha" type="matrix" values="0 0 0 0 0 0 0 0 0 0 0 0 0 0 0 0 0 0 127 0" result="hardAlpha"/>
<feOffset dy="-3"/>
<feComposite in2="hardAlpha" operator="arithmetic" k2="-1" k3="1"/>
<feColorMatrix type="matrix" values="0 0 0 0 0 0 0 0 0 0 0 0 0 0 0 0 0 0 0.15 0"/>
<feBlend mode="normal" in2="shape" result="effect1_innerShadow"/>
</filter>
</defs>
</svg>
