<svg width="40" height="30" viewBox="0 0 40 30" fill="none" xmlns="http://www.w3.org/2000/svg">
<g filter="url(#filter0_i)">
<rect x="0.765869" width="38.4682" height="30" fill="#2F80ED"/>
</g>
<path d="M14.9757 13.7627L12.4395 10.0645H14.2716L15.9942 12.71L17.7306 10.0645H19.5489L17.0059 13.7627L19.6788 17.625H17.8604L15.9942 14.7949L14.1349 17.625H12.3165L14.9757 13.7627ZM27.2462 17.625H20.4718V16.4082L23.0489 13.8174C23.81 13.0381 24.3136 12.4867 24.5597 12.1631C24.8103 11.835 24.9926 11.5273 25.1065 11.2402C25.2205 10.9531 25.2774 10.6455 25.2774 10.3174C25.2774 9.86621 25.1407 9.51074 24.8673 9.25098C24.5984 8.99121 24.2247 8.86133 23.7462 8.86133C23.3634 8.86133 22.9919 8.93197 22.6319 9.07324C22.2765 9.21452 21.864 9.46973 21.3946 9.83887L20.5265 8.7793C21.0824 8.3099 21.6225 7.97721 22.1466 7.78125C22.6707 7.58529 23.2289 7.4873 23.8214 7.4873C24.7511 7.4873 25.4962 7.73112 26.0567 8.21875C26.6173 8.70182 26.8975 9.35352 26.8975 10.1738C26.8975 10.625 26.8155 11.0534 26.6515 11.459C26.4919 11.8646 26.2436 12.2839 25.9063 12.7168C25.5737 13.1452 25.0177 13.7262 24.2384 14.46L22.502 16.1416V16.21H27.2462V17.625Z" fill="white"/>
<defs>
<filter id="filter0_i" x="0.765869" y="0" width="38.4682" height="30" filterUnits="userSpaceOnUse" color-interpolation-filters="sRGB">
<feFlood flood-opacity="0" result="BackgroundImageFix"/>
<feBlend mode="normal" in="SourceGraphic" in2="BackgroundImageFix" result="shape"/>
<feColorMatrix in="SourceAlpha" type="matrix" values="0 0 0 0 0 0 0 0 0 0 0 0 0 0 0 0 0 0 127 0" result="hardAlpha"/>
<feOffset dy="-3"/>
<feComposite in2="hardAlpha" operator="arithmetic" k2="-1" k3="1"/>
<feColorMatrix type="matrix" values="0 0 0 0 0 0 0 0 0 0 0 0 0 0 0 0 0 0 0.15 0"/>
<feBlend mode="normal" in2="shape" result="effect1_innerShadow"/>
</filter>
</defs>
</svg>
